<svg width="30" height="30" viewBox="0 0 30 30" fill="none" xmlns="http://www.w3.org/2000/svg">
<path fill-rule="evenodd" clip-rule="evenodd" d="M21.9971 8.42773C22.5296 8.52325 23.0177 8.68142 23.4609 8.90625C24.2445 9.28502 24.8619 9.84111 25.3115 10.5742L23.8467 11.9482C23.4613 11.3496 22.9984 10.8919 22.459 10.5742C22.3102 10.4845 22.1561 10.4081 21.9971 10.3438V14.1729C22.2974 14.2645 22.5799 14.3662 22.8447 14.4775C23.3969 14.6974 23.8657 14.9603 24.251 15.2656C24.6363 15.571 24.9255 15.9133 25.1182 16.292C25.3237 16.6708 25.4268 17.0806 25.4268 17.5205C25.4267 18.3389 25.2272 19.0479 24.8291 19.6465C24.4309 20.245 23.8658 20.7092 23.1338 21.0391C22.5792 21.2797 21.9433 21.428 21.2266 21.4863V23H19.3574V21.4316C18.7148 21.3355 18.1238 21.1566 17.585 20.8926C16.75 20.4772 16.0305 19.8533 15.4268 19.0225L16.8525 17.4648C17.482 18.3201 18.086 18.9133 18.6641 19.2432C18.8798 19.3663 19.1113 19.4649 19.3574 19.542V15.6162C18.8068 15.4639 18.3247 15.2748 17.9121 15.0459C17.3084 14.7038 16.8522 14.2695 16.5439 13.7441C16.2487 13.2189 16.1016 12.6082 16.1016 11.9121C16.1016 11.3989 16.217 10.9223 16.4482 10.4824C16.6923 10.0426 17.0196 9.66338 17.4307 9.3457C17.8545 9.01591 18.349 8.76576 18.9141 8.59473C19.2979 8.47026 19.7026 8.38857 20.1279 8.34863V7H21.9971V8.42773ZM21.2266 19.7061C21.5212 19.6725 21.7975 19.6123 22.0547 19.5176C22.4529 19.371 22.7678 19.1696 22.999 18.9131C23.2302 18.6565 23.3457 18.3631 23.3457 18.0332C23.3457 17.8133 23.3075 17.6056 23.2305 17.4102C23.1534 17.2148 23.0311 17.0377 22.8643 16.8789C22.7101 16.7201 22.504 16.5729 22.2471 16.4385C22.0032 16.3042 21.7144 16.1885 21.3809 16.0908C21.3309 16.0744 21.2789 16.0596 21.2266 16.0439V19.7061ZM20.1279 10.1309C19.8538 10.1658 19.6036 10.2282 19.377 10.3174C19.0044 10.464 18.7086 10.6716 18.4902 10.9404C18.2848 11.1969 18.1817 11.5023 18.1816 11.8564C18.1816 12.1129 18.2333 12.3514 18.3359 12.5713C18.4387 12.779 18.5933 12.9686 18.7988 13.1396C19.0172 13.2985 19.3064 13.4457 19.666 13.5801C19.8087 13.6285 19.963 13.6732 20.1279 13.7178V10.1309Z" fill="black"/>
<path fill-rule="evenodd" clip-rule="evenodd" d="M10.96 8C11.7599 8 12.4935 8.19963 13.1602 8.59961C13.8402 8.98628 14.3803 9.5202 14.7803 10.2002C15.1802 10.8668 15.3799 11.6201 15.3799 12.46C15.3799 13.2199 15.1802 13.9268 14.7803 14.5801C14.3803 15.2334 13.8464 15.7602 13.1797 16.1602C13.0203 16.2526 12.8563 16.333 12.6885 16.4033L15.9404 22.0195L13.3203 22L10.3574 16.7402H7.16016V22H5V8H10.96ZM7.16016 14.6602H11.1602C11.5468 14.6601 11.8936 14.5665 12.2002 14.3799C12.5067 14.1799 12.7466 13.9133 12.9199 13.5801C13.0932 13.2335 13.1796 12.8536 13.1797 12.4404C13.1797 11.9738 13.0665 11.5664 12.8398 11.2197C12.6265 10.8599 12.3198 10.5798 11.9199 10.3799C11.5333 10.1799 11.0929 10.0801 10.5996 10.0801H7.16016V14.6602Z" fill="black"/>
</svg>
