<svg preserveAspectRatio="none" width="100%" height="100%" overflow="visible" style="display: block;" viewBox="0 0 40 40" fill="none" xmlns="http://www.w3.org/2000/svg">
<g id="BTC logo">
<path id="Vector" d="M15.864 30.8361V28.3761H12.1739V25.916H14.634V13.6158H12.1739V11.1557H15.864V8.69565H18.324V11.1557H20.7841V8.69565H23.2441V11.3095C24.3102 11.5965 25.1917 12.1756 25.8887 13.0469C26.5857 13.9181 26.9342 14.9278 26.9342 16.0758C26.9342 16.6703 26.8317 17.2392 26.6267 17.7825C26.4217 18.3257 26.1347 18.8126 25.7657 19.2431C26.4832 19.6736 27.0624 20.2579 27.5031 20.9959C27.9439 21.7339 28.1643 22.5539 28.1643 23.456C28.1643 24.809 27.6825 25.9673 26.719 26.9308C25.7555 27.8943 24.5972 28.3761 23.2441 28.3761V30.8361H20.7841V28.3761H18.324V30.8361H15.864ZM17.094 18.5359H22.0141C22.6906 18.5359 23.2698 18.295 23.7515 17.8132C24.2333 17.3315 24.4742 16.7523 24.4742 16.0758C24.4742 15.3993 24.2333 14.8202 23.7515 14.3384C23.2698 13.8566 22.6906 13.6158 22.0141 13.6158H17.094V18.5359ZM17.094 25.916H23.2441C23.9207 25.916 24.4998 25.6751 24.9816 25.1934C25.4633 24.7116 25.7042 24.1325 25.7042 23.456C25.7042 22.7795 25.4633 22.2003 24.9816 21.7186C24.4998 21.2368 23.9207 20.9959 23.2441 20.9959H17.094V25.916Z" fill="var(--fill-0, black)"/>
<circle id="Ellipse 782" cx="20" cy="20" r="18.75" stroke="var(--stroke-0, black)" stroke-width="2.5"/>
</g>
</svg>
