<svg preserveAspectRatio="none" width="100%" height="100%" overflow="visible" style="display: block;" viewBox="0 0 40 40" fill="none" xmlns="http://www.w3.org/2000/svg">
<g id="Contact icon">
<path id="Vector" d="M20 31C18.4783 31 17.0483 30.7112 15.71 30.1337C14.3717 29.5562 13.2075 28.7725 12.2175 27.7825C11.2275 26.7925 10.4437 25.6283 9.86625 24.29C9.28875 22.9517 9 21.5217 9 20C9 18.4783 9.28875 17.0483 9.86625 15.71C10.4437 14.3717 11.2275 13.2075 12.2175 12.2175C13.2075 11.2275 14.3717 10.4437 15.71 9.86625C17.0483 9.28875 18.4783 9 20 9C21.5217 9 22.9517 9.28875 24.29 9.86625C25.6283 10.4437 26.7925 11.2275 27.7825 12.2175C28.7725 13.2075 29.5562 14.3717 30.1337 15.71C30.7112 17.0483 31 18.4783 31 20V21.595C31 22.6767 30.6287 23.5979 29.8862 24.3587C29.1437 25.1196 28.2317 25.5 27.15 25.5C26.5083 25.5 25.9033 25.3625 25.335 25.0875C24.7667 24.8125 24.29 24.4183 23.905 23.905C23.3733 24.4367 22.7729 24.8354 22.1037 25.1012C21.4346 25.3671 20.7333 25.5 20 25.5C18.4783 25.5 17.1812 24.9637 16.1087 23.8912C15.0362 22.8187 14.5 21.5217 14.5 20C14.5 18.4783 15.0362 17.1812 16.1087 16.1087C17.1812 15.0362 18.4783 14.5 20 14.5C21.5217 14.5 22.8187 15.0362 23.8912 16.1087C24.9637 17.1812 25.5 18.4783 25.5 20V21.595C25.5 22.0717 25.6558 22.475 25.9675 22.805C26.2792 23.135 26.6733 23.3 27.15 23.3C27.6267 23.3 28.0208 23.135 28.3325 22.805C28.6442 22.475 28.8 22.0717 28.8 21.595V20C28.8 17.5433 27.9475 15.4625 26.2425 13.7575C24.5375 12.0525 22.4567 11.2 20 11.2C17.5433 11.2 15.4625 12.0525 13.7575 13.7575C12.0525 15.4625 11.2 17.5433 11.2 20C11.2 22.4567 12.0525 24.5375 13.7575 26.2425C15.4625 27.9475 17.5433 28.8 20 28.8H25.5V31H20ZM20 23.3C20.9167 23.3 21.6958 22.9792 22.3375 22.3375C22.9792 21.6958 23.3 20.9167 23.3 20C23.3 19.0833 22.9792 18.3042 22.3375 17.6625C21.6958 17.0208 20.9167 16.7 20 16.7C19.0833 16.7 18.3042 17.0208 17.6625 17.6625C17.0208 18.3042 16.7 19.0833 16.7 20C16.7 20.9167 17.0208 21.6958 17.6625 22.3375C18.3042 22.9792 19.0833 23.3 20 23.3Z" fill="var(--fill-0, black)"/>
<circle id="Ellipse 782" cx="20" cy="20" r="18.75" stroke="var(--stroke-0, black)" stroke-width="2.5"/>
</g>
</svg>
