<svg preserveAspectRatio="none" width="100%" height="100%" overflow="visible" style="display: block;" viewBox="0 0 40 40" fill="none" xmlns="http://www.w3.org/2000/svg">
<g id="Group 1">
<circle id="Ellipse 782" cx="20" cy="20" r="18.75" stroke="var(--stroke-0, black)" stroke-width="2.5"/>
<path id="Vector" d="M20 31C18.4783 31 17.0483 30.7116 15.71 30.1348C14.3717 29.5581 13.2075 28.7753 12.2175 27.7865C11.2275 26.7978 10.4437 25.635 9.86625 24.2984C9.28875 22.9617 9 21.5335 9 20.0137C9 18.6404 9.26583 17.2946 9.7975 15.9763C10.3292 14.6579 11.0717 13.4815 12.025 12.4469C12.9783 11.4124 14.1242 10.5793 15.4625 9.94757C16.8008 9.31586 18.2675 9 19.8625 9C20.2475 9 20.6417 9.01831 21.045 9.05493C21.4483 9.09155 21.8608 9.15564 22.2825 9.24719C22.1175 10.0712 22.1725 10.8494 22.4475 11.5818C22.7225 12.3142 23.135 12.923 23.685 13.4082C24.235 13.8935 24.8904 14.2276 25.6512 14.4107C26.4121 14.5938 27.1958 14.5481 28.0025 14.2734C27.5258 15.3537 27.5946 16.3883 28.2087 17.377C28.8229 18.3658 29.735 18.8785 30.945 18.9151C30.9633 19.1165 30.9771 19.3042 30.9862 19.4782C30.9954 19.6521 31 19.8398 31 20.0412C31 21.5427 30.7112 22.9571 30.1337 24.2846C29.5562 25.6122 28.7725 26.7749 27.7825 27.7728C26.7925 28.7707 25.6283 29.5581 24.29 30.1348C22.9517 30.7116 21.5217 31 20 31ZM18.35 17.8165C18.8083 17.8165 19.1979 17.6563 19.5187 17.3358C19.8396 17.0154 20 16.6263 20 16.1685C20 15.7108 19.8396 15.3217 19.5187 15.0012C19.1979 14.6808 18.8083 14.5206 18.35 14.5206C17.8917 14.5206 17.5021 14.6808 17.1812 15.0012C16.8604 15.3217 16.7 15.7108 16.7 16.1685C16.7 16.6263 16.8604 17.0154 17.1812 17.3358C17.5021 17.6563 17.8917 17.8165 18.35 17.8165ZM16.15 23.3096C16.6083 23.3096 16.9979 23.1494 17.3187 22.829C17.6396 22.5085 17.8 22.1194 17.8 21.6617C17.8 21.2039 17.6396 20.8148 17.3187 20.4944C16.9979 20.1739 16.6083 20.0137 16.15 20.0137C15.6917 20.0137 15.3021 20.1739 14.9812 20.4944C14.6604 20.8148 14.5 21.2039 14.5 21.6617C14.5 22.1194 14.6604 22.5085 14.9812 22.829C15.3021 23.1494 15.6917 23.3096 16.15 23.3096ZM23.3 24.4082C23.6117 24.4082 23.8729 24.303 24.0837 24.0924C24.2946 23.8818 24.4 23.6209 24.4 23.3096C24.4 22.9983 24.2946 22.7374 24.0837 22.5268C23.8729 22.3163 23.6117 22.211 23.3 22.211C22.9883 22.211 22.7271 22.3163 22.5162 22.5268C22.3054 22.7374 22.2 22.9983 22.2 23.3096C22.2 23.6209 22.3054 23.8818 22.5162 24.0924C22.7271 24.303 22.9883 24.4082 23.3 24.4082ZM20 28.8027C22.2367 28.8027 24.2212 28.0337 25.9537 26.4956C27.6862 24.9576 28.635 22.9983 28.8 20.618C27.8833 20.2151 27.1637 19.6658 26.6412 18.97C26.1187 18.2742 25.7658 17.496 25.5825 16.6355C24.1708 16.434 22.9608 15.8298 21.9525 14.8227C20.9442 13.8156 20.3208 12.6072 20.0825 11.1973C18.6158 11.1606 17.3279 11.4261 16.2187 11.9938C15.1096 12.5614 14.1837 13.2892 13.4412 14.1773C12.6987 15.0653 12.1396 16.0312 11.7637 17.0749C11.3879 18.1186 11.2 19.0982 11.2 20.0137C11.2 22.449 12.0571 24.5227 13.7712 26.2347C15.4854 27.9467 17.5617 28.8027 20 28.8027Z" fill="var(--fill-0, black)"/>
</g>
</svg>
