<svg width="30" height="30" viewBox="0 0 30 30" fill="none" xmlns="http://www.w3.org/2000/svg">
<path d="M16.28 22.32C15.3067 22.32 14.4067 22.1467 13.58 21.8C12.7533 21.4533 12.04 20.9667 11.44 20.34C10.84 19.7 10.3733 18.94 10.04 18.06C9.70667 17.18 9.54 16.2 9.54 15.12C9.54 14.0933 9.70667 13.1533 10.04 12.3C10.3733 11.4333 10.8467 10.68 11.46 10.04C12.0733 9.38667 12.7867 8.88667 13.6 8.54C14.4267 8.18 15.32 8 16.28 8C16.6667 8 17.0467 8.04 17.42 8.12C17.7933 8.18667 18.1533 8.29333 18.5 8.44C18.86 8.57333 19.1933 8.74 19.5 8.94L18.52 10.6C18.1867 10.3733 17.8267 10.2067 17.44 10.1C17.0533 9.98 16.6667 9.92 16.28 9.92C15.5867 9.92 14.9467 10.0467 14.36 10.3C13.7733 10.5533 13.26 10.9133 12.82 11.38C12.3933 11.8467 12.06 12.4 11.82 13.04C11.5933 13.6667 11.48 14.36 11.48 15.12C11.48 15.92 11.5933 16.6467 11.82 17.3C12.06 17.94 12.3867 18.4933 12.8 18.96C13.2267 19.4267 13.7333 19.7867 14.32 20.04C14.9067 20.28 15.56 20.4 16.28 20.4C16.56 20.4 16.8267 20.3733 17.08 20.32C17.3333 20.2667 17.58 20.1867 17.82 20.08C18.06 19.9733 18.2933 19.8467 18.52 19.7L19.52 21.38C19.1867 21.58 18.84 21.7533 18.48 21.9C18.12 22.0333 17.7533 22.1333 17.38 22.2C17.0067 22.28 16.64 22.32 16.28 22.32ZM8 17.68V15.8L16.04 15.84V17.7L8 17.68ZM8 14.76V12.9L16.04 12.92V14.78L8 14.76Z" fill="black"/>
</svg>
