<svg width="30" height="30" viewBox="0 0 30 30" fill="none" xmlns="http://www.w3.org/2000/svg">
<path d="M12.34 21.14L10.84 20.72C11.04 20.6133 11.22 20.4333 11.38 20.18C11.54 19.9267 11.6667 19.6267 11.76 19.28C11.8533 18.9333 11.9 18.5667 11.9 18.18C11.9 17.9933 11.8867 17.8067 11.86 17.62C11.8467 17.4333 11.82 17.2267 11.78 17C11.74 16.76 11.6733 16.4933 11.58 16.2C11.5 15.9067 11.3933 15.56 11.26 15.16C11.1 14.6667 10.98 14.26 10.9 13.94C10.82 13.62 10.76 13.3467 10.72 13.12C10.6933 12.8933 10.68 12.6733 10.68 12.46C10.68 11.5667 10.8667 10.7867 11.24 10.12C11.6133 9.44 12.1333 8.92 12.8 8.56C13.48 8.18667 14.28 8 15.2 8C16.0933 8 16.8667 8.15333 17.52 8.46C18.1867 8.75333 18.6733 9.16667 18.98 9.7L17.5 10.82C17.3 10.6067 17.08 10.4333 16.84 10.3C16.6 10.1533 16.34 10.0467 16.06 9.98C15.7933 9.9 15.5067 9.86 15.2 9.86C14.7067 9.86 14.2667 9.97333 13.88 10.2C13.5067 10.4267 13.2133 10.74 13 11.14C12.7867 11.5267 12.68 11.9733 12.68 12.48C12.68 12.8933 12.7467 13.3467 12.88 13.84C13.0267 14.32 13.1667 14.7533 13.3 15.14C13.4333 15.54 13.5667 15.9733 13.7 16.44C13.8333 16.8933 13.9 17.32 13.9 17.72C13.9 18.12 13.84 18.5133 13.72 18.9C13.6133 19.2733 13.4467 19.6467 13.22 20.02C12.9933 20.38 12.7 20.7533 12.34 21.14ZM16.9 22.62C16.5933 22.62 16.2133 22.56 15.76 22.44C15.32 22.32 14.9533 22.2133 14.66 22.12C14.4867 22.0667 14.28 22.0067 14.04 21.94C13.8 21.8733 13.56 21.8133 13.32 21.76C13.08 21.7067 12.8667 21.68 12.68 21.68C12.2533 21.68 11.7867 21.74 11.28 21.86C10.7867 21.9667 10.2933 22.12 9.8 22.32L9 20.9C9.52 20.58 10.1 20.34 10.74 20.18C11.38 20.0067 12.0267 19.92 12.68 19.92C13.0667 19.92 13.42 19.9533 13.74 20.02C14.06 20.0867 14.5067 20.22 15.08 20.42C15.36 20.5133 15.66 20.6133 15.98 20.72C16.3 20.8133 16.6067 20.86 16.9 20.86C17.2733 20.86 17.6467 20.8067 18.02 20.7C18.3933 20.58 18.7733 20.4 19.16 20.16L20.2 21.46C19.7867 21.8333 19.2867 22.12 18.7 22.32C18.1267 22.52 17.5267 22.62 16.9 22.62ZM9.28 15.74V14.04H17.44V15.74H9.28Z" fill="black"/>
</svg>
