<svg preserveAspectRatio="none" width="100%" height="100%" overflow="visible" style="display: block;" viewBox="0 0 40 40" fill="none" xmlns="http://www.w3.org/2000/svg">
<g id="Policy icon">
<circle id="Ellipse 782" cx="20" cy="20" r="18.75" stroke="var(--stroke-0, black)" stroke-width="2.5"/>
<path id="Vector" d="M20 31C17.3937 30.3583 15.2422 28.8962 13.5453 26.6137C11.8484 24.3312 11 21.7967 11 19.01V12.3L20 9L29 12.3V19.01C29 20.5683 28.7281 22.0671 28.1844 23.5062C27.6406 24.9454 26.8625 26.215 25.85 27.315L22.25 23.795C21.9125 23.9967 21.5516 24.1479 21.1672 24.2487C20.7828 24.3496 20.3937 24.4 20 24.4C18.7625 24.4 17.7031 23.9692 16.8219 23.1075C15.9406 22.2458 15.5 21.21 15.5 20C15.5 18.79 15.9406 17.7542 16.8219 16.8925C17.7031 16.0308 18.7625 15.6 20 15.6C21.2375 15.6 22.2969 16.0308 23.1781 16.8925C24.0594 17.7542 24.5 18.79 24.5 20C24.5 20.4033 24.4484 20.7929 24.3453 21.1687C24.2422 21.5446 24.0875 21.9067 23.8812 22.255L25.5687 23.905C25.9437 23.1533 26.2344 22.365 26.4406 21.54C26.6469 20.715 26.75 19.8717 26.75 19.01V13.8125L20 11.3375L13.25 13.8125V19.01C13.25 21.2283 13.8875 23.245 15.1625 25.06C16.4375 26.875 18.05 28.085 20 28.69C20.4875 28.5433 20.9516 28.3554 21.3922 28.1262C21.8328 27.8971 22.2687 27.6267 22.7 27.315L24.275 28.855C23.6562 29.35 22.9859 29.7808 22.2641 30.1475C21.5422 30.5142 20.7875 30.7983 20 31ZM20 22.2C20.6187 22.2 21.1484 21.9846 21.5891 21.5537C22.0297 21.1229 22.25 20.605 22.25 20C22.25 19.395 22.0297 18.8771 21.5891 18.4462C21.1484 18.0154 20.6187 17.8 20 17.8C19.3812 17.8 18.8516 18.0154 18.4109 18.4462C17.9703 18.8771 17.75 19.395 17.75 20C17.75 20.605 17.9703 21.1229 18.4109 21.5537C18.8516 21.9846 19.3812 22.2 20 22.2Z" fill="var(--fill-0, black)"/>
</g>
</svg>
