<svg preserveAspectRatio="none" width="100%" height="100%" overflow="visible" style="display: block;" viewBox="0 0 18 18" fill="none" xmlns="http://www.w3.org/2000/svg">
<g id="reset">
<path id="Vector" d="M3.39375 12.3136C3.09583 11.7955 2.8724 11.2636 2.72344 10.7182C2.57448 10.1727 2.5 9.61364 2.5 9.04091C2.5 7.21364 3.12969 5.65909 4.38906 4.37727C5.64844 3.09545 7.18542 2.45455 9 2.45455H9.14219L7.84219 1.14545L8.97969 0L12.2297 3.27273L8.97969 6.54545L7.84219 5.4L9.14219 4.09091H9C7.64583 4.09091 6.49479 4.57159 5.54687 5.53295C4.59896 6.49432 4.125 7.66364 4.125 9.04091C4.125 9.39545 4.16562 9.74318 4.24687 10.0841C4.32812 10.425 4.45 10.7591 4.6125 11.0864L3.39375 12.3136ZM9.02031 18L5.77031 14.7273L9.02031 11.4545L10.1578 12.6L8.85781 13.9091H9C10.3542 13.9091 11.5052 13.4284 12.4531 12.467C13.401 11.5057 13.875 10.3364 13.875 8.95909C13.875 8.60455 13.8344 8.25682 13.7531 7.91591C13.6719 7.575 13.55 7.24091 13.3875 6.91364L14.6062 5.68636C14.9042 6.20455 15.1276 6.73636 15.2766 7.28182C15.4255 7.82727 15.5 8.38636 15.5 8.95909C15.5 10.7864 14.8703 12.3409 13.6109 13.6227C12.3516 14.9045 10.8146 15.5455 9 15.5455H8.85781L10.1578 16.8545L9.02031 18Z" fill="var(--fill-0, #8D4F04)"/>
</g>
</svg>
