<svg preserveAspectRatio="none" width="100%" height="100%" overflow="visible" style="display: block;" viewBox="0 0 40 40" fill="none" xmlns="http://www.w3.org/2000/svg">
<g id="Stack_Icon">
<circle id="Ellipse 782" cx="20" cy="20" r="18.75" stroke="var(--stroke-0, black)" stroke-width="2.5"/>
<path id="Vector (Stroke)" d="M11.5 26C11.5 24.8954 12.3954 24 13.5 24C14.6046 24 15.5 24.8954 15.5 26C15.5 27.1046 14.6046 28 13.5 28C12.3954 28 11.5 27.1046 11.5 26ZM17.5 26C17.5 24.8954 18.3954 24 19.5 24C20.6046 24 21.5 24.8954 21.5 26C21.5 27.1046 20.6046 28 19.5 28C18.3954 28 17.5 27.1046 17.5 26ZM23.5 26C23.5 24.8954 24.3954 24 25.5 24C26.6046 24 27.5 24.8954 27.5 26C27.5 27.1046 26.6046 28 25.5 28C24.3954 28 23.5 27.1046 23.5 26ZM11.5 20C11.5 18.8954 12.3954 18 13.5 18C14.6046 18 15.5 18.8954 15.5 20C15.5 21.1046 14.6046 22 13.5 22C12.3954 22 11.5 21.1046 11.5 20ZM17.5 20C17.5 18.8954 18.3954 18 19.5 18C20.6046 18 21.5 18.8954 21.5 20C21.5 21.1046 20.6046 22 19.5 22C18.3954 22 17.5 21.1046 17.5 20ZM23.5 20C23.5 18.8954 24.3954 18 25.5 18C26.6046 18 27.5 18.8954 27.5 20C27.5 21.1046 26.6046 22 25.5 22C24.3954 22 23.5 21.1046 23.5 20ZM11.5 14C11.5 12.8954 12.3954 12 13.5 12C14.6046 12 15.5 12.8954 15.5 14C15.5 15.1046 14.6046 16 13.5 16C12.3954 16 11.5 15.1046 11.5 14ZM17.5 14C17.5 12.8954 18.3954 12 19.5 12C20.6046 12 21.5 12.8954 21.5 14C21.5 15.1046 20.6046 16 19.5 16C18.3954 16 17.5 15.1046 17.5 14ZM23.5 14C23.5 12.8954 24.3954 12 25.5 12C26.6046 12 27.5 12.8954 27.5 14C27.5 15.1046 26.6046 16 25.5 16C24.3954 16 23.5 15.1046 23.5 14Z" fill="var(--fill-0, black)"/>
</g>
</svg>
