<svg preserveAspectRatio="none" width="100%" height="100%" overflow="visible" style="display: block;" viewBox="0 0 30 30" fill="none" xmlns="http://www.w3.org/2000/svg">
<g id="Sats">
<path id="Vector" d="M14.1658 22V20.2083C13.41 20.0417 12.7576 19.7222 12.2086 19.25C11.6595 18.7778 11.2567 18.1111 11 17.25L12.5829 16.625C12.7968 17.2917 13.1141 17.7986 13.5348 18.1458C13.9554 18.4931 14.508 18.6667 15.1925 18.6667C15.7772 18.6667 16.2727 18.5382 16.6791 18.2813C17.0856 18.0243 17.2888 17.625 17.2888 17.0833C17.2888 16.5972 17.1319 16.2118 16.8182 15.9271C16.5045 15.6424 15.7772 15.3194 14.6364 14.9583C13.41 14.5833 12.5686 14.1354 12.1123 13.6146C11.656 13.0938 11.4278 12.4583 11.4278 11.7083C11.4278 10.8056 11.7273 10.1042 12.3262 9.60417C12.9251 9.10417 13.5383 8.81944 14.1658 8.75V7H15.877V8.75C16.59 8.86111 17.1783 9.11458 17.6417 9.51042C18.1052 9.90625 18.4439 10.3889 18.6578 10.9583L17.0749 11.625C16.9037 11.1806 16.6613 10.8472 16.3476 10.625C16.0339 10.4028 15.6061 10.2917 15.0642 10.2917C14.4367 10.2917 13.959 10.4271 13.631 10.6979C13.303 10.9688 13.139 11.3056 13.139 11.7083C13.139 12.1667 13.3529 12.5278 13.7807 12.7917C14.2086 13.0556 14.9501 13.3333 16.0053 13.625C16.9893 13.9028 17.7344 14.3438 18.2406 14.9479C18.7469 15.5521 19 16.25 19 17.0417C19 18.0278 18.7005 18.7778 18.1016 19.2917C17.5027 19.8056 16.7611 20.125 15.877 20.25V22H14.1658Z" fill="var(--fill-0, black)"/>
</g>
</svg>
